<svg width="56" height="56" viewBox="0 0 56 56" fill="none" xmlns="http://www.w3.org/2000/svg">
<g clip-path="url(#clip0_1029_17538)">
<path d="M14.5761 5.99997C11.0275 5.99997 7.89627 7.60656 6 10.0612V20.9986C7.89627 23.4514 11.0275 25.058 14.5761 25.058C16.2932 25.058 17.9093 24.6749 19.3406 24.0098V46.0217H25.058V15.529C25.058 10.2671 20.3659 5.99997 14.5761 5.99997Z" stroke="#CCCCCC" stroke-width="2.1" stroke-miterlimit="10" stroke-linecap="round" stroke-linejoin="round"/>
<path d="M16.4819 21.2464C18.0599 21.2464 19.3406 22.5271 19.3406 24.1051" stroke="#CCCCCC" stroke-width="2.1" stroke-miterlimit="10" stroke-linecap="round" stroke-linejoin="round"/>
<path d="M23.1522 49.8333H21.2464C20.1944 49.8333 19.3406 48.9795 19.3406 47.9275V46.0217H25.058V47.9275C25.058 48.9795 24.2042 49.8333 23.1522 49.8333Z" stroke="#CCCCCC" stroke-width="2.1" stroke-miterlimit="10" stroke-linecap="round" stroke-linejoin="round"/>
<path d="M11.2409 13.6231C10.4519 13.6231 9.8116 14.2635 9.8116 15.0525C9.8116 15.8415 10.4519 16.4818 11.2409 16.4818C12.0299 16.4818 12.6703 15.8415 12.6703 15.0525C12.6703 14.2635 12.0299 13.6231 11.2409 13.6231Z" fill="#CCCCCC"/>
<path d="M17.431 10.4062C18.9156 11.0598 20.0991 12.2071 20.7337 13.6212" stroke="#CCCCCC" stroke-width="2.1" stroke-miterlimit="10" stroke-linecap="round" stroke-linejoin="round"/>
<path d="M41.2573 5.99997C44.8059 5.99997 47.9371 7.60656 49.8334 10.0612V20.9986C47.9371 23.4514 44.8059 25.058 41.2573 25.058C39.5401 25.058 37.924 24.6749 36.4928 24.0098V46.0217H30.7754V15.529C30.7754 10.2671 35.4674 5.99997 41.2573 5.99997Z" stroke="#CCCCCC" stroke-width="2.1" stroke-miterlimit="10" stroke-linecap="round" stroke-linejoin="round"/>
<path d="M39.3515 21.2464C37.7735 21.2464 36.4928 22.5271 36.4928 24.1051" stroke="#CCCCCC" stroke-width="2.1" stroke-miterlimit="10" stroke-linecap="round" stroke-linejoin="round"/>
<path d="M32.6812 49.8333H34.587C35.639 49.8333 36.4928 48.9795 36.4928 47.9275V46.0217H30.7754V47.9275C30.7754 48.9795 31.6292 49.8333 32.6812 49.8333Z" stroke="#CCCCCC" stroke-width="2.1" stroke-miterlimit="10" stroke-linecap="round" stroke-linejoin="round"/>
<path d="M38.4024 10.4062C36.9178 11.0598 35.7343 12.2071 35.0996 13.6212" stroke="#CCCCCC" stroke-width="2.1" stroke-miterlimit="10" stroke-linecap="round" stroke-linejoin="round"/>
<path d="M44.5924 13.6231C43.8034 13.6231 43.1631 14.2635 43.1631 15.0525C43.1631 15.8415 43.8034 16.4818 44.5924 16.4818C45.3814 16.4818 46.0218 15.8415 46.0218 15.0525C46.0218 14.2635 45.3814 13.6231 44.5924 13.6231Z" fill="#CCCCCC"/>
</g>
<defs>
<clipPath id="clip0_1029_17538">
<rect width="56" height="56" fill="white"/>
</clipPath>
</defs>
</svg>
